<?xml version="1.0" encoding="UTF-8" standalone="no"?>
<svg
   xmlns:dc="http://purl.org/dc/elements/1.1/"
   xmlns:cc="http://creativecommons.org/ns#"
   xmlns:rdf="http://www.w3.org/1999/02/22-rdf-syntax-ns#"
   xmlns:svg="http://www.w3.org/2000/svg"
   xmlns="http://www.w3.org/2000/svg"
   id="svg8"
   version="1.1"
   viewBox="0 0 117.364 70.776001"
   height="70.776001mm"
   width="117.364mm">
  <defs
     id="defs2">
    <clipPath
       clipPathUnits="userSpaceOnUse"
       id="clipPath170">
      <path
         d="M 0,250.89 H 381.276 V 0 H 0 Z"
         id="path168" />
    </clipPath>
  </defs>
  <metadata
     id="metadata5">
    <rdf:RDF>
      <cc:Work
         rdf:about="">
        <dc:format>image/svg+xml</dc:format>
        <dc:type
           rdf:resource="http://purl.org/dc/dcmitype/StillImage" />
        <dc:title></dc:title>
        <dc:title></dc:title>
      </cc:Work>
    </rdf:RDF>
  </metadata>
  <g
     id="layer1">
    <g
       id="g146"
       transform="matrix(0.35277777,0,0,-0.35277777,-8.6987943,79.79939)">
      <path
         d="M 356.843,77.017 H 25.158 v 148.686 h 331.685 z"
         style="fill:#dd040c;fill-opacity:1;fill-rule:nonzero;stroke:#dd040c;stroke-width:1;stroke-linecap:butt;stroke-linejoin:miter;stroke-miterlimit:10;stroke-dasharray:none;stroke-opacity:1"
         id="path148" />
      <g
         id="g150"
         transform="translate(36.4961,175.8595)">
        <path
           d="M 0,0 H 21.5 V -49 H 0 v -30 h 73 v 30 H 51.5 V 0 H 73 V 30 H 0 Z"
           style="fill:#ffffff;fill-opacity:1;fill-rule:nonzero;stroke:none"
           id="path152" />
      </g>
      <path
         d="m 272.504,175.859 h 73 v 30 h -73 z"
         style="fill:#ffffff;fill-opacity:1;fill-rule:nonzero;stroke:none"
         id="path154" />
      <g
         id="g156"
         transform="translate(115.1655,175.8595)">
        <path
           d="M 0,0 H 37 L 32.076,-9 H 12.64 V -51.522 L 2.73,-79 h 30 l 9.91,27.478 v 12.509 h 9.018 L 73,0 V 30 H 0 Z"
           style="fill:#ffffff;fill-opacity:1;fill-rule:nonzero;stroke:none"
           id="path158" />
      </g>
      <g
         id="g160"
         transform="translate(272.5039,140.8595)">
        <path
           d="M 0,0 H 37 L 5.78,-44 h 36 L 73,0 V 30 H 0 Z"
           style="fill:#ffffff;fill-opacity:1;fill-rule:nonzero;stroke:none"
           id="path162" />
      </g>
      <g
         id="g164">
        <g
           id="g166"
           clip-path="url(#clipPath170)">
          <g
             id="g172"
             transform="translate(255.3428,177.713)">
            <path
               d="m 0,0 c -10.627,0 -19.273,8.646 -19.273,19.273 0,3.201 0.795,6.214 2.182,8.873 h -44.417 v -30 h 43 V -33.838 L -52.2,-80.854 h 36 l 27.692,38.892 V -1.854 3.837 C 8.278,1.439 4.31,0 0,0"
               style="fill:#ffffff;fill-opacity:1;fill-rule:nonzero;stroke:none"
               id="path174" />
          </g>
          <g
             id="g176"
             transform="translate(255.3428,191.3141)">
            <path
               d="m 0,0 c -3.132,0 -5.672,2.54 -5.672,5.672 0,3.133 2.54,5.672 5.672,5.672 3.133,0 5.673,-2.539 5.673,-5.672 C 5.673,2.54 3.133,0 0,0 m 0,20.945 c -8.435,0 -15.272,-6.838 -15.272,-15.273 0,-8.435 6.837,-15.273 15.272,-15.273 8.436,0 15.273,6.838 15.273,15.273 0,8.435 -6.837,15.273 -15.273,15.273"
               style="fill:#ffffff;fill-opacity:1;fill-rule:nonzero;stroke:none"
               id="path178" />
          </g>
          <path
             d="M 356.843,26.077 H 25.158 v 50.939 h 331.685 z"
             style="fill:none;stroke:#dd040c;stroke-width:1;stroke-linecap:butt;stroke-linejoin:miter;stroke-miterlimit:10;stroke-dasharray:none;stroke-opacity:1"
             id="path180" />
          <g
             id="g182"
             transform="translate(59.7607,36.4835)">
            <path
               d="m 0,0 c -0.916,-0.582 -2.02,-1.024 -3.312,-1.327 -1.293,-0.303 -2.725,-0.454 -4.295,-0.454 -4.206,0 -7.695,1.41 -10.465,4.23 -2.771,2.821 -4.157,6.376 -4.157,10.669 0,4.292 1.389,7.861 4.166,10.706 2.777,2.845 6.262,4.268 10.456,4.268 1.607,0 3.048,-0.149 4.323,-0.446 C -2.01,27.35 -0.916,26.904 0,26.311 v -8.48 c -0.866,0.965 -1.896,1.713 -3.089,2.245 -1.194,0.531 -2.434,0.798 -3.721,0.798 -2.288,0 -4.141,-0.728 -5.557,-2.181 -1.416,-1.453 -2.124,-3.361 -2.124,-5.723 0,-2.202 0.717,-4.008 2.152,-5.418 1.435,-1.41 3.278,-2.115 5.529,-2.115 1.249,0 2.483,0.268 3.702,0.806 C -1.89,6.781 -0.854,7.526 0,8.479 Z"
               style="fill:#dd040c;fill-opacity:1;fill-rule:nonzero;stroke:none"
               id="path184" />
          </g>
          <g
             id="g186"
             transform="translate(88.1826,35.3146)">
            <path
               d="M 0,0 H -7.44 V 11.467 H -17.738 V 0 h -7.459 v 28.648 h 7.459 V 17.553 H -7.44 V 28.648 H 0 Z"
               style="fill:#dd040c;fill-opacity:1;fill-rule:nonzero;stroke:none"
               id="path188" />
          </g>
          <g
             id="g190"
             transform="translate(108.9419,35.3146)">
            <path
               d="M 0,0 H -16.384 V 28.648 H 0 V 22.34 h -8.925 v -4.787 h 8.554 V 11.467 H -8.925 V 6.309 H 0 Z"
               style="fill:#dd040c;fill-opacity:1;fill-rule:nonzero;stroke:none"
               id="path192" />
          </g>
          <g
             id="g194"
             transform="translate(133.4116,36.4835)">
            <path
               d="m 0,0 c -0.916,-0.582 -2.02,-1.024 -3.312,-1.327 -1.293,-0.303 -2.725,-0.454 -4.295,-0.454 -4.206,0 -7.695,1.41 -10.465,4.23 -2.771,2.821 -4.157,6.376 -4.157,10.669 0,4.292 1.389,7.861 4.166,10.706 2.777,2.845 6.262,4.268 10.456,4.268 1.607,0 3.048,-0.149 4.323,-0.446 C -2.01,27.35 -0.916,26.904 0,26.311 v -8.48 c -0.866,0.965 -1.896,1.713 -3.089,2.245 -1.194,0.531 -2.434,0.798 -3.721,0.798 -2.288,0 -4.141,-0.728 -5.557,-2.181 -1.416,-1.453 -2.124,-3.361 -2.124,-5.723 0,-2.202 0.717,-4.008 2.152,-5.418 1.435,-1.41 3.278,-2.115 5.529,-2.115 1.249,0 2.483,0.268 3.702,0.806 C -1.89,6.781 -0.854,7.526 0,8.479 Z"
               style="fill:#dd040c;fill-opacity:1;fill-rule:nonzero;stroke:none"
               id="path196" />
          </g>
          <g
             id="g198"
             transform="translate(163.0586,35.3146)">
            <path
               d="m 0,0 h -9.463 l -9.5,13.378 V 0 h -7.459 v 28.648 h 7.459 V 15.734 l 9.611,12.914 h 8.814 l -11.096,-13.86 z"
               style="fill:#dd040c;fill-opacity:1;fill-rule:nonzero;stroke:none"
               id="path200" />
          </g>
          <g
             id="g202"
             transform="translate(191.4023,57.3204)">
            <path
               d="m 0,0 c 0,0.692 -0.223,1.252 -0.668,1.679 -0.445,0.426 -1.033,0.64 -1.763,0.64 -0.829,0 -1.472,-0.222 -1.929,-0.668 -0.458,-0.445 -0.687,-1.057 -0.687,-1.837 0,-0.322 0.099,-0.727 0.297,-1.215 0.198,-0.489 0.439,-0.912 0.724,-1.271 l 1.094,-1.354 0.965,0.76 c 0.631,0.507 1.116,1.042 1.457,1.605 C -0.17,-1.099 0,-0.545 0,0 m -0.798,-15.011 -4.416,4.862 c -0.928,-0.52 -1.639,-1.114 -2.134,-1.782 -0.495,-0.668 -0.742,-1.367 -0.742,-2.096 0,-0.854 0.291,-1.581 0.872,-2.181 0.581,-0.6 1.305,-0.899 2.171,-0.899 0.643,0 1.318,0.172 2.023,0.519 0.705,0.346 1.447,0.872 2.226,1.577 m 15.011,-6.995 H 5.622 l -2.505,2.783 c -1.237,-1.175 -2.604,-2.035 -4.1,-2.579 -1.497,-0.544 -3.272,-0.816 -5.326,-0.816 -2.523,0 -4.605,0.761 -6.243,2.282 -1.639,1.522 -2.459,3.444 -2.459,5.771 0,1.755 0.479,3.261 1.438,4.517 0.959,1.256 2.644,2.539 5.056,3.851 -0.804,0.952 -1.428,1.988 -1.874,3.107 -0.445,1.119 -0.668,2.211 -0.668,3.276 0,2.115 0.748,3.822 2.246,5.121 1.496,1.298 3.537,1.948 6.123,1.948 2.671,0 4.737,-0.644 6.197,-1.93 C 4.966,4.038 5.696,2.227 5.696,-0.111 5.696,-1.436 5.257,-2.709 4.379,-3.934 3.5,-5.158 2.183,-6.334 0.427,-7.459 l 3.34,-3.562 c 0.705,0.593 1.387,1.227 2.049,1.901 0.663,0.674 1.309,1.383 1.94,2.125 l 4.026,-4.249 c -0.631,-0.805 -1.268,-1.55 -1.911,-2.236 -0.643,-0.687 -1.299,-1.315 -1.967,-1.883 z"
               style="fill:#dd040c;fill-opacity:1;fill-rule:nonzero;stroke:none"
               id="path204" />
          </g>
          <g
             id="g206"
             transform="translate(239.1914,44.3507)">
            <path
               d="m 0,0 c 0,-2.932 -1.015,-5.273 -3.043,-7.023 -2.028,-1.75 -4.731,-2.625 -8.108,-2.625 -1.98,0 -3.767,0.331 -5.363,0.992 -1.595,0.662 -3.173,1.728 -4.731,3.201 l 3.488,5.381 c 1.052,-1.188 2.128,-2.067 3.229,-2.635 1.1,-0.569 2.282,-0.854 3.544,-0.854 1.039,0 1.886,0.272 2.542,0.817 0.655,0.544 0.983,1.249 0.983,2.115 0,0.94 -0.3,1.673 -0.899,2.198 -0.601,0.526 -1.897,1.042 -3.888,1.55 -2.659,0.693 -4.61,1.703 -5.854,3.033 -1.243,1.33 -1.865,3.072 -1.865,5.224 0,2.647 0.912,4.783 2.737,6.41 1.825,1.627 4.221,2.441 7.19,2.441 1.596,0 3.093,-0.211 4.49,-0.631 1.398,-0.421 2.715,-1.058 3.952,-1.911 l -2.449,-5.752 c -0.841,0.716 -1.728,1.264 -2.662,1.641 -0.935,0.377 -1.865,0.567 -2.793,0.567 -0.989,0 -1.778,-0.196 -2.365,-0.585 -0.588,-0.39 -0.882,-0.912 -0.882,-1.568 0,-1.274 1.404,-2.276 4.212,-3.006 C -8.35,8.931 -8.207,8.894 -8.108,8.869 -5.227,8.102 -3.154,7.02 -1.893,5.622 -0.631,4.224 0,2.35 0,0"
               style="fill:#dd040c;fill-opacity:1;fill-rule:nonzero;stroke:none"
               id="path208" />
          </g>
          <g
             id="g210"
             transform="translate(267.6885,35.3146)">
            <path
               d="M 0,0 H -7.44 V 11.467 H -17.738 V 0 h -7.459 v 28.648 h 7.459 V 17.553 H -7.44 V 28.648 H 0 Z"
               style="fill:#dd040c;fill-opacity:1;fill-rule:nonzero;stroke:none"
               id="path212" />
          </g>
          <g
             id="g214"
             transform="translate(288.1133,45.9093)">
            <path
               d="M 0,0 -3.804,12.172 -7.645,0 Z M 11.17,-10.595 H 3.191 L 1.633,-5.511 H -9.314 l -1.596,-5.084 h -7.979 l 10.187,28.649 h 9.685 z"
               style="fill:#dd040c;fill-opacity:1;fill-rule:nonzero;stroke:none"
               id="path216" />
          </g>
          <g
             id="g218"
             transform="translate(327.2041,35.3146)">
            <path
               d="m 0,0 h -9.463 l -9.5,13.378 V 0 h -7.459 v 28.648 h 7.459 V 15.734 l 9.611,12.914 h 8.814 l -11.096,-13.86 z"
               style="fill:#dd040c;fill-opacity:1;fill-rule:nonzero;stroke:none"
               id="path220" />
          </g>
          <g
             id="g222"
             transform="translate(345.0137,35.3146)">
            <path
               d="M 0,0 H -16.384 V 28.648 H 0 V 22.34 h -8.925 v -4.787 h 8.554 V 11.467 H -8.925 V 6.309 H 0 Z"
               style="fill:#dd040c;fill-opacity:1;fill-rule:nonzero;stroke:none"
               id="path224" />
          </g>
        </g>
      </g>
    </g>
  </g>
</svg>
