<svg width="117.87mm" height="15.597mm" version="1.1" viewBox="0 0 117.87 15.597" xmlns="http://www.w3.org/2000/svg" xmlns:xlink="http://www.w3.org/1999/xlink">
 <defs>
  <symbol id="an" overflow="visible"/>
  <symbol id="am" overflow="visible">
   <path d="m2.4219-7.9219c-0.03125 0.29688-0.046875 0.67188-0.10938 1.1406h-1.4688v1.2031h1.3125c-0.078125 0.46875-0.625 3.6875-1.5469 5.6562l1.2656 0.4375c0.625-1.4531 1.25-4.3281 1.5312-6.0938h2.6094v-1.2031h-2.4219c0.078125-0.48438 0.10938-0.79688 0.15625-1.125zm6.5156 2.3906c-2.4844-0.03125-3.4062 0.28125-4.1562 0.60938l0.39062 1.0625c0.42188-0.15625 1.125-0.42188 2.8281-0.42188 0.40625 0 0.6875 0.015625 0.95312 0.03125zm-4.1094 2.4219c-0.26562 0.28125-0.82812 0.90625-0.82812 1.75 0 1.7969 2.3125 1.7969 3.4062 1.7969s1.2656 0 1.6562-0.03125v-1.2656c-0.8125 0.09375-1.8438 0.09375-2.0625 0.09375-0.64062 0-1.7969 0-1.7969-0.73438 0-0.15625 0.046875-0.5 0.53125-1z"/>
  </symbol>
  <symbol id="ah" overflow="visible">
   <path d="m1.875-7.9375c0 0.67188-0.03125 2.9219-0.03125 4.3438 0 1.4062 0 2.3125 0.48438 2.9844 0.59375 0.8125 1.4531 1.0625 2.5312 1.0625 2.3906 0 3.6875-1.3906 4.125-3.7969l-1.2812-0.45312c-0.10938 0.70312-0.42188 3-2.8125 3-1.5312 0-1.7344-0.90625-1.7344-2.0625 0-1.4531 0.09375-4.7656 0.09375-5.0781z"/>
  </symbol>
  <symbol id="ag" overflow="visible">
   <path d="m2.4688-8.0625c-0.015625 0.42188-0.0625 0.9375-0.15625 1.7656h-1.6406v1.2656l1.4531-0.03125c-0.28125 1.7031-0.76562 3.375-1.5938 4.8906l1.2656 0.57812c0.26562-0.46875 0.92188-1.7031 1.6094-5.4688l0.96875-0.015625c0.60938-0.015625 1.1406 0.078125 1.1406 1.2969 0 0.32812-0.0625 1.8906-0.375 2.5781-0.15625 0.34375-0.45312 0.45312-0.89062 0.45312-0.42188 0-0.89062-0.078125-1.2812-0.125l0.078125 1.25c0.5 0.0625 1.0469 0.10938 1.4531 0.10938 0.71875 0 1.2031-0.1875 1.5625-0.64062 0.48438-0.59375 0.71875-2.1719 0.71875-3.25 0-1.3281-0.21875-2.8906-2.1094-2.8906h-1.0469c0.09375-0.5625 0.14062-1.0469 0.20312-1.6875zm6.9531 5.3438c-0.21875-2.5312-0.9375-3.625-1.6094-4.4531l-1.125 0.5625c0.48438 0.625 1.2031 1.6562 1.3594 4.1094z"/>
  </symbol>
  <symbol id="b" overflow="visible">
   <path d="m2.4219-8.0625c-0.0625 0.4375-0.09375 0.78125-0.15625 1.1875h-1.6562v1.2188h1.4219c-0.3125 1.6094-0.76562 3.2188-1.5156 4.6875l1.3125 0.45312c0.25-0.59375 0.95312-2.5312 1.5312-5.1406h2.125v-1.2188h-1.8594c0.0625-0.34375 0.10938-0.64062 0.17188-1.0938zm6.7344 1.0469c-1.8594 0.015625-2.4062 0.09375-3.125 0.26562l0.10938 3.5312c-0.1875-0.015625-0.40625-0.046875-0.71875-0.046875-1.7969 0-2.4844 1-2.4844 1.9375 0 0.82812 0.5625 1.8594 2.3438 1.8594 1.7344 0 2.125-1.1562 2.125-1.7188v-0.17188c0.5625 0.40625 0.84375 0.65625 1.2344 1.0781l0.75-1.25c-0.71875-0.67188-1.7969-1.2031-1.9688-1.2812l-0.078125-2.7969c0.23438-0.046875 0.46875-0.078125 1.0156-0.078125 0.3125 0 0.53125 0.015625 0.8125 0.046875zm-2.9844 5.5312c0 0.6875-0.51562 0.85938-1 0.85938-0.42188 0-1.0469-0.15625-1.0469-0.71875 0-0.625 0.67188-0.84375 1.2344-0.84375 0.375 0 0.59375 0.078125 0.8125 0.15625z"/>
  </symbol>
  <symbol id="af" overflow="visible">
   <path d="m1.3438 0.92188h1.25v-6.7656c0.48438-1.0469 0.6875-1.9062 0.78125-2.3438l-1.1875-0.14062c-0.5625 2.3906-1.4844 3.3125-2.0781 3.875l0.45312 1.3281c0.21875-0.1875 0.42188-0.375 0.78125-0.76562zm3.2188-9.25c-0.23438 1.0156-0.73438 2.3281-1.7812 3.3438l0.625 1.2031c0.3125-0.29688 0.85938-0.84375 1.5469-2.0938h0.1875v6.7969h1.25v-2.0625h2.875v-1.1719h-2.875v-1.2031h2.875v-1.1719h-2.875v-1.1875h3.1094v-1.1719h-4.0156c0.1875-0.5625 0.26562-0.85938 0.32812-1.1719z"/>
  </symbol>
  <symbol id="ae" overflow="visible">
   <path d="m0.875 0.76562c1.8281-0.60938 2.5938-1.0938 3.4219-1.8281v1.9375h1.1875v-1.9062c0.96875 0.85938 2.1406 1.4375 3.3906 1.7969l0.625-1.0938c-1.2188-0.28125-2.1719-0.60938-3.1562-1.2812h3.1094v-0.96875h-3.9688v-0.5h3.4219v-0.82812h-3.4219v-0.5h3.625v-0.92188h-2.125c0.046875-0.14062 0.14062-0.45312 0.21875-0.65625h2.25v-1h-1.3594c0.26562-0.45312 0.45312-0.98438 0.48438-1.0781l-1.1875-0.26562c-0.10938 0.35938-0.3125 0.9375-0.5 1.3438h-0.51562v-1.2969h-1.1094v1.2969h-0.71875v-1.2969h-1.1094v1.2969h-0.51562c-0.17188-0.59375-0.29688-0.90625-0.51562-1.3438l-1.1875 0.26562c0.25 0.5 0.34375 0.70312 0.5 1.0781h-1.3906v1h2.2344c0.078125 0.15625 0.1875 0.45312 0.23438 0.65625h-2.0781v0.92188h3.5781v0.5h-3.3594v0.82812h3.3594v0.5h-3.9688v0.96875h3.0625c-0.65625 0.4375-1.625 0.92188-3.1094 1.3125zm5.0781-6.75c-0.09375 0.39062-0.14062 0.5-0.1875 0.65625h-1.7188c-0.03125-0.09375-0.20312-0.54688-0.23438-0.65625z"/>
  </symbol>
  <symbol id="ad" overflow="visible">
   <path d="m7.9219-3.7812c-0.25-0.5-0.5625-1.0156-0.90625-1.4375l-0.75 0.40625c0.4375 0.60938 0.78125 1.2969 0.875 1.4688zm1.2812-0.67188c-0.1875-0.42188-0.60938-1.0156-0.89062-1.3281l-0.76562 0.40625c0.3125 0.39062 0.5 0.6875 0.89062 1.3906zm-0.125-3.1562c-1 0.03125-5.4844 0.20312-6.3125 0.25-0.73438 0.046875-1.5156 0.09375-2.1719 0.09375l0.046875 1.375c0.625-0.0625 3.6406-0.32812 4.3281-0.375-2.3281 1.4844-2.5 3.1094-2.5 3.7344 0 0.95312 0.57812 1.875 1.5156 2.3281 0.89062 0.45312 1.8906 0.65625 4.0312 0.65625l0.1875-1.3906c-4.0625 0.14062-4.3906-1.0156-4.3906-1.7656 0-1.2188 1.0625-2.25 1.625-2.6719 0.89062-0.67188 1.6875-0.92188 2.4531-0.9375 0.35938-0.015625 1 0 1.2188 0z"/>
  </symbol>
  <symbol id="ac" overflow="visible">
   <path d="m2.2656 0.09375c1.5 0 2.6719-0.078125 3.6562-0.29688 0.76562-0.15625 3.2969-0.70312 3.2969-3.625 0-1.9375-1.3438-3.2344-3.4062-3.2344-0.85938 0-1.7969 0.14062-2.5938 0.28125-0.28125 0.046875-2.6719 0.4375-2.7344 0.4375l0.26562 1.4219c0.65625-0.17188 3.6094-0.89062 4.9688-0.89062 1.6719 0 2.0781 1.0938 2.0781 1.9844 0 2.5-2.5938 2.6875-5.8125 2.6719z"/>
  </symbol>
  <symbol id="ab" overflow="visible">
   <path d="m8.25-0.32812c-1.5625-1.2812-4.3125-2.7344-4.5-2.8281-0.5625-0.29688-0.78125-0.42188-0.78125-0.67188 0-0.1875 0.15625-0.3125 0.34375-0.4375 1.8281-1.3438 2.4062-1.8438 3.8281-3.0938l-1.2969-0.8125c-1.1719 1.1719-1.1875 1.2031-3.8438 3.3281-0.40625 0.32812-0.5625 0.75-0.5625 1.0469 0 0.70312 0.46875 1 1.0938 1.375 1.5469 0.95312 3.0938 1.9375 4.4844 3.0938zm-0.29688-4.0469c-0.34375-0.70312-0.85938-1.3281-0.92188-1.4219l-0.79688 0.40625c0.35938 0.5 0.70312 1.1406 0.89062 1.4844zm1.2344-0.67188c-0.25-0.54688-0.70312-1.0938-0.92188-1.3594l-0.79688 0.40625c0.32812 0.39062 0.75 1.0625 0.9375 1.4219z"/>
  </symbol>
  <symbol id="al" overflow="visible">
   <path d="m7.9219-1.4375v0.98438h-3.6094v-0.98438zm-4.8281-0.95312v3.2969h1.2188v-0.375h3.6094v0.375h1.2031v-3.2969zm-2.0625 3.2969h1.1719v-6.6719c0.45312-1.2344 0.57812-2.0469 0.64062-2.4688l-1.2344-0.125c-0.23438 1.5938-0.82812 3.0156-1.5156 3.8438l0.46875 1.5469c0.1875-0.1875 0.28125-0.28125 0.46875-0.53125zm2.3594-9.0469v0.98438h5.4531v-0.98438zm-0.10938 2.8906v0.96875h5.7031v-0.96875zm0 1.4219v0.98438h5.7031v-0.98438zm-0.65625-2.875v1.0156h6.875v-1.0156z"/>
  </symbol>
  <symbol id="ak" overflow="visible">
   <path d="m4.9375 0.95312c0.6875-0.3125 1.375-0.78125 1.8906-1.3438l-0.71875-0.65625h1.9219l-0.6875 0.71875c0.45312 0.45312 0.90625 0.82812 1.6719 1.2344l0.59375-1.0312c-0.375-0.17188-0.82812-0.4375-1.4375-0.92188h0.96875v-5.2969h-1.7031c0.078125-0.1875 0.15625-0.5 0.20312-0.625h1.75v-1.0625h-4.5156v0.48438h-1.7031v-0.78125h-1.0938v0.78125h-1.7812v1.0781h1.7812v0.5h-1.5156v3.125h1.3594c-0.65625 1.1094-1.4688 1.8125-1.75 2.0625l0.53125 1.1562c0.25-0.26562 0.75-0.78125 1.375-1.9062v2.4219h1.0938v-2.4688c0.34375 0.59375 0.6875 1 0.85938 1.2031l0.65625-1.0469c-0.25-0.20312-0.84375-0.67188-1.375-1.4219h1.375v-3.125h-1.5156v-0.5h1.7031v-0.5h1.6094c-0.03125 0.20312-0.10938 0.46875-0.17188 0.625h-1.1406v5.2969h0.84375c-0.5625 0.53125-0.92188 0.73438-1.7031 1.1094zm3.0781-5v0.59375h-1.7188v-0.59375zm0-1.3906v0.59375h-1.7188v-0.59375zm0 2.8125v0.625h-1.7188v-0.625zm-5.875-2.375v1.1562h-0.57812v-1.1562zm1.5625 0v1.1562h-0.57812v-1.1562z"/>
  </symbol>
  <symbol id="aj" overflow="visible">
   <path d="m6.9844-0.015625 0.25 0.90625h0.96875c0.89062 0 0.96875-0.34375 0.96875-1.0312v-7.875h-3.875v3.375h2.7188v4.0469c0 0.25-0.015625 0.32812-0.28125 0.32812h-0.59375l0.14062-0.21875c-0.34375-0.14062-0.79688-0.3125-1.3906-0.89062h1.625v-0.85938h-2.2188c0.046875-0.21875 0.0625-0.375 0.078125-0.57812h2.0156v-0.85938h-0.89062c0.03125-0.0625 0.21875-0.4375 0.28125-0.6875l-1.1406-0.125c-0.0625 0.20312-0.15625 0.5625-0.25 0.8125h-1.0156c-0.046875-0.21875-0.17188-0.5625-0.29688-0.8125l-1.1094 0.1875c0.0625 0.10938 0.28125 0.5625 0.3125 0.625h-0.8125v0.85938h1.8281c0 0.1875 0 0.32812-0.0625 0.57812h-1.9688v0.85938h1.5312c-0.64062 0.73438-1.375 0.96875-1.7188 1.0625l0.625 0.95312c1.5156-0.5625 2.0781-1.5938 2.2188-1.8438 0.10938 0.1875 0.625 1.1094 1.7812 1.6406zm1.0312-7.1719v0.53125h-1.5938v-0.53125zm0 1.2188v0.53125h-1.5938v-0.53125zm-7.4062 6.8594h1.1562v-5.5312h2.7188v-3.375h-3.875zm2.75-8.0781v0.53125h-1.5938v-0.53125zm0 1.2188v0.53125h-1.5938v-0.53125z"/>
  </symbol>
  <symbol id="ai" overflow="visible">
   <path d="m2.7656-2.4844c0.40625 0 2.2812-0.0625 2.6562-0.0625v3.4375h1.2188v-3.5c0.73438-0.046875 1.2969-0.09375 1.7188-0.15625 0.078125 0.21875 0.125 0.375 0.1875 0.57812l1.0938-0.42188c-0.3125-0.96875-0.57812-1.5156-1.0625-2.3281l-0.98438 0.42188c0.14062 0.26562 0.21875 0.4375 0.375 0.78125l-1.7031 0.078125c0.84375-0.82812 1.6406-1.7031 2.3438-2.6562l-1.0625-0.54688c-0.73438 1.0469-1.1875 1.5625-1.7344 2.1562-0.125-0.125-0.29688-0.29688-0.625-0.59375 0.34375-0.35938 0.95312-1.1562 1.2656-1.6719 1.5625-0.125 2.4062-0.3125 2.7812-0.39062l-0.39062-1c-1.7031 0.39062-4.4375 0.46875-5.7812 0.46875l0.15625 1.0469c0.29688 0 0.75 0 1.7969-0.046875-0.26562 0.39062-0.45312 0.625-0.67188 0.89062-0.23438-0.1875-0.39062-0.28125-0.5625-0.39062l-0.6875 0.84375c0.84375 0.625 1.5156 1.2031 1.9688 1.6406-0.23438 0.23438-0.26562 0.25-0.3125 0.28125h-2.0781zm-1.6562 3.3594h1.1875v-6.7344c0.42188-1.1094 0.54688-1.9062 0.625-2.3594l-1.2031-0.15625c-0.375 2.1094-0.96875 3.0312-1.6094 3.8281l0.42188 1.5938c0.21875-0.20312 0.3125-0.32812 0.57812-0.67188zm2.8438-3.0312c-0.32812 0.78125-0.84375 1.4375-1.4531 1.9688l0.875 0.84375c0.75-0.71875 1.2969-1.5312 1.6406-2.4375zm3.125 0.35938c0.34375 0.95312 1.0469 1.9062 1.6406 2.5l0.85938-0.84375c-0.79688-0.8125-1.1719-1.3594-1.5-2.0469z"/>
  </symbol>
  <symbol id="aa" overflow="visible">
   <path d="m1.1094-4.9531v2.7812h2.6719v1.8438c0 0.23438-0.078125 0.23438-0.28125 0.23438h-1.1562l0.15625 0.875h1.375c0.60938 0 0.73438-0.42188 0.73438-0.8125v-2.1406h2.6562v-2.7812zm5.2969 0.78125v1.2344h-4.4531v-1.2344zm1.7344-2.2656h-3.5312v-0.71875h-0.90625v0.71875h-3.4531v0.85938h7.8906zm-6.1094 4.5312c-0.1875 0.28125-0.76562 1.1406-1.8594 1.8281l0.60938 0.67188c1.0469-0.6875 1.8438-1.8281 2-2.0469zm6.1094 1.7031c-0.78125-0.45312-1.3125-0.9375-1.9375-1.7344l-0.75 0.45312c0.67188 0.92188 1.1094 1.4375 2.1094 2.0312z"/>
  </symbol>
  <symbol id="s" overflow="visible">
   <path d="m0.42188-1.8906c0.20312-0.10938 0.21875-0.10938 0.5-0.25v2.875h0.79688v-0.34375h2.625v-3.6406h-1.7812c0.39062-0.3125 0.5625-0.5 0.70312-0.64062h1.4844v-0.75h-0.82812c0.51562-0.6875 0.875-1.3281 1.1406-1.7812l-0.79688-0.34375c-0.20312 0.39062-0.3125 0.59375-0.45312 0.84375v-0.5h-1.1719v-0.70312h-0.79688v0.70312h-1.3906v0.76562h1.3906v1.0156h-1.6406v0.75h1.9375c-0.6875 0.57812-1.4844 0.98438-2.0469 1.25zm3.1562-0.64062v0.75h-1.8594v-0.75zm0 1.4531v0.75h-1.8594v-0.75zm0.078125-4.5781c-0.35938 0.53125-0.60938 0.84375-0.75 1.0156h-0.26562v-1.0156zm1.4844-1.2812v7.6719h0.84375v-6.9062h1.125c-0.14062 0.42188-0.375 1.0938-0.96875 2.3125 0.3125 0.34375 1.1406 1.2031 1.1406 2.25 0 0.54688-0.125 0.70312-0.625 0.70312h-0.48438l0.09375 0.84375h0.54688c0.4375 0 0.75 0 1.0469-0.35938 0.14062-0.20312 0.32812-0.60938 0.32812-1.2031s-0.17188-1.3906-1.125-2.375c0.23438-0.42188 0.78125-1.5156 0.98438-2.1719v-0.76562z"/>
  </symbol>
  <symbol id="r" overflow="visible">
   <path d="m3.75-6.2656h-3.4844v0.875h3.4844v0.9375h-2.7812v4.6406h0.875v-3.8125h1.9062v4.3906h0.85938v-4.3906h1.9531v2.5625c0 0.17188-0.015625 0.25-0.1875 0.25h-1.0625l0.15625 0.89062h1.2031c0.76562 0 0.76562-0.6875 0.76562-0.89062v-3.6406h-2.8281v-0.9375h3.5156v-0.875h-3.5156v-0.89062h-0.85938z"/>
  </symbol>
  <symbol id="q" overflow="visible">
   <path d="m2.5781-3.875c0.015625 0.046875 0.21875 0.5625 0.28125 0.92188h-0.78125v0.70312h1.6719v0.70312h-1.6719v0.6875h1.6719v1.4531h0.8125v-1.4531h1.7344v-0.6875h-1.7344v-0.70312h1.7344v-0.70312h-0.90625c0.10938-0.28125 0.25-0.71875 0.3125-1-0.23438-0.046875-0.53125-0.078125-0.75-0.10938h1.8125v3.7812c0 0.15625-0.14062 0.15625-0.20312 0.15625h-1.1562l0.17188 0.82812h1.3594c0.35938 0 0.70312-0.23438 0.70312-0.76562v-4.7969h-3.0156v-0.78125h3.4844v-0.84375h-3.4844v-0.64062h-0.875v0.64062h-3.5156v0.84375h3.5156v0.78125h-3.0156v5.5625h0.875v-4.7656h1.6719zm1.1094 0.92188c-0.03125-0.17188-0.046875-0.29688-0.09375-0.45312-0.03125-0.09375-0.20312-0.5625-0.23438-0.65625h1.5312c-0.09375 0.3125-0.17188 0.67188-0.34375 1.1094z"/>
  </symbol>
  <symbol id="p" overflow="visible">
   <path d="m2.3125-0.73438c0.8125-0.46875 1.7656-1.1094 2.7188-2.0781 1.1719 0.79688 1.7188 1.3281 2.1094 1.7188l0.64062-0.79688c-0.42188-0.375-1.0781-0.96875-2.1562-1.625 0.67188-0.85938 1.0469-1.5781 1.2344-1.9688l-0.89062-0.32812c-0.48438 1.0781-0.84375 1.5469-1.0781 1.8594-0.76562-0.42188-1.6719-0.82812-2.3594-1.125l-0.45312 0.70312c0.59375 0.26562 1.3438 0.59375 2.2188 1.1094-0.92188 0.96875-1.9219 1.5156-2.5469 1.8281zm-1.7656 1.4688h0.89062v-0.32812h6.7031v-0.82812h-6.7031v-5.6094h6.4844v-0.8125h-7.375z"/>
  </symbol>
  <symbol id="o" overflow="visible">
   <path d="m8.1094-6.4531h-3.4844v-0.67188h-0.84375v0.67188h-3.5v0.79688h3.5v0.48438h-2.9375v3.2031h2.2656c-0.82812 0.84375-1.9219 1.4688-2.9375 1.7812l0.5625 0.78125c0.76562-0.28125 2.1094-1.0469 3.0469-2.2031v2.3438h0.84375v-2.3438c0.89062 1.0312 2.3125 1.875 3.125 2.1875l0.48438-0.85938c-0.45312-0.14062-1.8438-0.60938-2.9844-1.6875h2.3281v-3.2031h-2.9531v-0.48438h3.4844zm-6.4375 1.9844h2.1094v0.5625h-2.1094zm0 1.2188h2.1094v0.57812h-2.1094zm5.0938-1.2188v0.5625h-2.1406v-0.5625zm0 1.2188v0.57812h-2.1406v-0.57812z"/>
  </symbol>
  <symbol id="n" overflow="visible">
   <path d="m0.6875 0.70312c2.0625-1.1406 2.5469-2.9062 2.6719-3.6406 0.125-0.67188 0.20312-1.4531 0.23438-1.8594h1.8594v4.6562c0 0.59375 0.46875 0.76562 0.79688 0.76562h0.82812c0.71875 0 0.85938-0.34375 0.92188-0.5 0.10938-0.26562 0.1875-1.5469 0.20312-1.6562l-0.9375-0.40625c0.015625 0.26562-0.015625 1.3906-0.09375 1.5781-0.046875 0.10938-0.15625 0.14062-0.23438 0.14062h-0.42188c-0.17188 0-0.17188-0.078125-0.17188-0.21875v-5.2031h-2.7031c0.03125-0.5 0.046875-0.96875 0.046875-1.4844h-0.90625c0 0.45312 0.015625 0.89062-0.015625 1.4844h-2.4844v0.84375h2.4375c-0.125 1.4062-0.29688 3.6875-2.6562 4.6719z"/>
  </symbol>
  <symbol id="m" overflow="visible">
   <path d="m0.65625-4.7188c0.32812-0.09375 0.79688-0.26562 1.4531-0.64062 0.21875 0.23438 0.5625 0.5625 1.0938 0.89062-1.4844 0.375-2.4844 0.45312-2.9531 0.48438l0.1875 0.79688c0.625-0.0625 2.3281-0.25 3.75-0.76562 1.5469 0.59375 3.1406 0.76562 3.7188 0.82812l0.26562-0.85938c-0.54688-0.03125-1.5625-0.078125-2.9219-0.46875 0.84375-0.48438 1.3438-1.0156 1.625-1.3438v-0.75h-3.2031c0.25-0.25 0.34375-0.39062 0.46875-0.57812l-1.0156-0.0625c-0.42188 0.54688-0.96875 1.1094-2.8438 1.6875zm2.125-1.0781h2.9062c-0.23438 0.23438-0.59375 0.60938-1.4531 0.98438-0.8125-0.35938-1.2812-0.76562-1.4844-0.95312zm-2.25 6.375c1.3281-0.60938 2.25-1.2031 3.2344-2.3594v2.5469h0.84375v-2.5156c0.625 0.82812 1.3594 1.4219 3.1406 2.3281l0.46875-0.84375c-1.0156-0.35938-1.9531-0.89062-2.7344-1.625h2.625v-0.8125h-3.5v-0.95312h-0.84375v0.95312h-3.4844v0.8125h2.5781c-0.78125 0.76562-1.75 1.2812-2.75 1.6406z"/>
  </symbol>
  <symbol id="l" overflow="visible">
   <path d="m3.75-7.125v1.4375h-3.125v4.3594h0.875v-0.46875h2.25v2.5469h0.875v-2.5469h2.2969v0.46875h0.89062v-4.3594h-3.1875v-1.4375zm3.1719 2.3125v2.1406h-2.2969v-2.1406zm-3.1719 0v2.1406h-2.25v-2.1406z"/>
  </symbol>
  <symbol id="z" overflow="visible">
   <path d="m2.9062-7.1875c-0.125 0.53125-0.60938 1.3125-1.0938 1.7656l0.64062 0.4375c0.15625-0.15625 0.29688-0.29688 0.48438-0.57812h0.64062v1.0781h-1.3438v0.79688h1.3438v3.125c-0.078125 0.015625-0.42188 0.0625-0.48438 0.078125v-2.7031h-0.78125v2.7969c-0.03125 0-0.078125 0-0.29688 0.03125l0.09375 0.78125c0.78125-0.09375 2.4375-0.34375 3.3125-0.51562v-0.78125c-0.10938 0.015625-0.625 0.10938-1.0625 0.1875v-1.2812h0.98438v-0.8125h-0.98438v-0.90625h1.0625v-0.79688h-1.0625v-1.0781h0.98438v-0.79688h-1.9531c0.17188-0.34375 0.21875-0.53125 0.28125-0.71875zm-1.4531 1.9219c-0.375 1.1875-0.78125 1.7188-1.2969 2.2812l0.21875 1.0312c0.15625-0.15625 0.29688-0.29688 0.57812-0.65625v3.375h0.79688v-4.6719c0.29688-0.54688 0.375-0.8125 0.4375-1.0156zm-0.89062 0.26562c0.73438-0.59375 1.2812-1.3281 1.5312-1.9688l-0.75-0.26562c-0.21875 0.5-0.70312 1.0469-1.2344 1.4688zm5.0938-1.7812v7.5469h0.79688v-6.7188h0.65625v4.4375c0 0.35938 0 0.40625-0.28125 0.40625h-0.14062l0.078125 0.8125h0.40625c0.73438 0 0.73438-0.26562 0.73438-0.96875v-5.5156z"/>
  </symbol>
  <symbol id="y" overflow="visible">
   <path d="m7.5781-6.875h-6.7344v0.625h2.9219v0.39062h-3.2812v1.8125h0.82812v-1.2031h2.4531v1.6719h0.82812v-1.6719h2.4531v1.2031h0.85938v-1.8125h-3.3125v-0.39062h2.9844zm-6.7344 4.0938h6.6875v-0.60938h-6.6875zm0.89062-0.9375h1.6719v-0.45312h-1.6719zm3.2344 0h1.6719v-0.45312h-1.6719zm-4.625 1.9688h2.5312v1.5469h-2.6094v0.6875h7.8281v-0.6875h-2.5938v-1.5469h2.5156v-0.64062h-7.6719zm4.3281 0v1.5469h-0.96875v-1.5469zm-3.6094 0.3125c0.17188 0.39062 0.29688 0.75 0.39062 1.1719l0.85938-0.25c-0.125-0.42188-0.42188-1.0625-0.45312-1.1562zm0.67188-3.0625h1.6719v-0.42188h-1.6719zm3.2344 0h1.6719v-0.42188h-1.6719zm1.5781 2.8125c-0.15625 0.59375-0.32812 0.9375-0.45312 1.1875l0.78125 0.23438c0.20312-0.35938 0.42188-0.85938 0.54688-1.2344z"/>
  </symbol>
  <symbol id="x" overflow="visible">
   <path d="m0.48438 0.34375h0.8125v-0.67188h3.25v-6.4844h-4.0625zm3.2812-6.3438v1.9531h-0.875v-1.9531zm0 2.7344v2.125h-0.875v-2.125zm-1.6562-2.7344v1.9531h-0.8125v-1.9531zm0 2.7344v2.125h-0.8125v-2.125zm4.3281 2.9375c0 0.10938-0.046875 0.1875-0.21875 0.1875h-1.3906l0.15625 0.89062h1.7188c0.4375 0 0.625-0.29688 0.625-0.6875v-5.4062h0.8125v-0.90625h-3.2656v0.90625h1.5625z"/>
  </symbol>
  <symbol id="w" overflow="visible">
   <path d="m3.6875-6.6094-3.4844 4.0781v1.0938h3.875v1.4375h0.98438v-1.4375h1.1094v-0.90625h-1.1094v-4.2656zm0.39062 4.2656h-2.875l2.875-3.4062z"/>
  </symbol>
  <symbol id="v" overflow="visible">
   <path d="m0.45312-2.25c0 1.6094 0.48438 2.3125 2.8594 2.3125 1.0312 0 2.6094-0.09375 2.6094-1.9375 0-1.2188-0.76562-1.4844-1.0156-1.5781 0.1875-0.046875 0.9375-0.25 0.9375-1.4375 0-1.7812-1.7188-1.7812-2.5-1.7812-1.7031 0-2.7031 0.23438-2.75 2.1094h1c0.015625-0.64062 0.015625-1.2031 1.7969-1.2031 1 0 1.4531 0.25 1.4531 1 0 0.95312-0.78125 0.95312-1.2031 0.95312h-1.0469v0.8125h1.0469c1.2344 0 1.2812 0.625 1.2812 1.0781 0 0.89062-0.53125 1.0781-1.7188 1.0781-1.7656 0-1.7656-0.57812-1.75-1.4062z"/>
  </symbol>
  <symbol id="u" overflow="visible">
   <path d="m0.1875-2.9219v0.90625h2.2656v-0.90625z"/>
  </symbol>
  <symbol id="t" overflow="visible">
   <path d="m4.1094-2.6094c0.46875-0.078125 0.79688-0.23438 1.0625-0.40625 0.45312-0.29688 0.73438-0.70312 0.73438-1.5938 0-1.9062-1.4219-2.0625-2.6875-2.0625-2.2188 0-2.625 0.84375-2.6406 2.2812h0.98438c0.015625-1.0625 0.3125-1.375 1.7188-1.375 1.2344 0 1.625 0.34375 1.625 1.1562 0 0.82812-0.35938 1.0312-1.0938 1.1406l-1.6406 0.23438c-1.625 0.23438-1.7031 1.4688-1.7031 2.5v0.73438h5.4062v-0.90625h-4.4062v-0.1875c0-1.0469 0.46875-1.1719 1.0469-1.2656z"/>
  </symbol>
  <symbol id="k" overflow="visible">
   <path d="m7.5938-8.8125h10.578l0.51562-1.8438c1.1719 0.84375 2.0938 1.3281 2.7969 1.6875l3.0312-4.0781c-2.6094-0.79688-5.4062-2.5469-6.8125-4.9844h-4.5156c-2.7812 2.5-6.1719 4.0312-9.5469 4.9844l0.60938 4.0781c0.90625-0.39062 2.1406-0.89062 3.875-1.7812zm3.3594-3.5625c1.9375-1.1875 2.9688-2.1094 3.6094-2.6562 0.29688 0.48438 0.85938 1.4219 2.0938 2.6562zm-9.4531 14.453h4.0625l0.17188-0.59375h8.6406l-0.17188 0.59375h4.1094l2.7812-10.094h-16.812zm14.5-6.4844-0.65625 2.3438h-8.6406l0.65625-2.3438z"/>
  </symbol>
  <symbol id="j" overflow="visible">
   <path d="m17.609-8.9531h-9.2656l-2.2344 8.0938h7.3125l-0.3125 2.9531h3.7031c1.6875 0 2.5156-0.625 3.0938-2.7031l4.625-16.812h-18.469l-5.375 19.516h3.8125l4.3438-15.781h10.859l-3.0625 11.125c-0.17188 0.60938-0.67188 0.60938-0.96875 0.60938zm-4.3906 3.2031-0.48438 1.75h-2.4219l0.48438-1.75zm-4.9375-3.8594h9.7344l0.9375-3.375h-9.7344z"/>
  </symbol>
  <symbol id="i" overflow="visible">
   <path d="m20.328 0.42188c-0.51562-1.6094-1.1406-3.2812-2.3594-5.3125h3.3438l1.0469-3.7969h-18.969l-1.0469 3.7969h4.0938c-0.39062 0.67188-0.89062 1.5-1.6875 2.5781-2.3594 0.03125-2.6094 0.03125-3.125 0.03125l-0.40625 4.0625c5.0469-0.17188 5.7969-0.23438 14.359-0.96875 0.15625 0.54688 0.25 0.90625 0.39062 1.5zm-12.844-9.8594h11.172l0.375-1.3438c1.1406 0.76562 1.8594 1.0781 2.4375 1.3438l3.1094-4c-2.7188-0.96875-5.0156-2.2656-6.7031-4.6719h-4.7344c-2.25 2.0625-6.5 4.0156-9.4219 4.75l0.85938 4.0469c0.5625-0.1875 1.4219-0.45312 3.25-1.375zm6.0469 5.4688c0.25 0.46875 0.42188 0.78125 0.78125 1.5625l-5.4531 0.078125c0.6875-0.9375 1.2031-1.6562 1.8125-2.5625h5.2656zm-1.8438-8.8906c1.7188-1.0625 2.2812-1.5469 2.9531-2.1094 0.40625 0.5625 0.75 1.0938 1.7656 2.1094z"/>
  </symbol>
  <symbol id="h" overflow="visible">
   <path d="m8.1875-5.0469c0.32812 0.82812 0.625 1.25 0.9375 1.6875l2.9531-3.7344c-0.51562-0.34375-1.3906-0.98438-2.0938-2.1562 1.1406-1.2344 1.5156-1.8281 1.9375-2.5156l1-3.6094h-1.8906l0.70312-2.5938h-4.0156l-0.70312 2.5938h-2.2188l-1 3.6094h3.9688c-0.89062 1.1094-3 2.9219-5.5938 4.1719l-0.59375 4.9375c0.60938-0.35938 1.0938-0.64062 2.3438-1.4688l-1.7031 6.1562h4.0156zm7.7969-8.2656h-3.3125l-1.0938 3.9844h3.3125l-1.9062 6.9531h-4.4688l-1.0781 3.9062h12.5l1.0781-3.9062h-3.9375l1.9062-6.9531h3.75l1.0938-3.9844h-3.75l1.2812-4.6562h-4.0938z"/>
  </symbol>
  <symbol id="a" overflow="visible">
   <path d="m21.859-22.047h-7.2344l-14.203 22.047h6.2656l2.7188-4.3281h7.8281l0.40625 4.3281h6.2656zm-5.125 5.4688 0.4375 7.4375h-4.9844z"/>
  </symbol>
  <symbol id="g" overflow="visible">
   <path d="m8.4062-22.047-6.0625 22.047h5.6562l6.0625-22.047z"/>
  </symbol>
  <symbol id="f" overflow="visible">
   <path d="m7.9062-22.047-6.0625 22.047h5.5938l2.0781-7.5781h5.7656c1.25 0 2.4375 0.03125 1.8438 2.1875l-0.5625 2.0312c-0.26562 0.98438-0.54688 2.375-0.59375 3.3594h5.7969c0-0.75 0-2.1875 0.60938-4.3906l0.54688-1.9531c0.5625-2.0781 0.04687-3.3281-1.6562-3.7812 3.2031-1.0938 4.1094-3.8281 4.6094-5.6719 1.4844-5.4062-1.375-6.25-4.3125-6.25zm10.812 5.125c1.2656 0 1.8438 0.46875 1.4219 1.9531-0.5625 2.0469-1.4062 2.4688-2.6406 2.4688h-6.625l1.2188-4.4219z"/>
  </symbol>
  <symbol id="e" overflow="visible">
   <path d="m7.9062-22.047-6.0625 22.047h5.5625l1.8281-6.6562h7.6406c5.7344 0 7.7188-2.5781 9.1406-7.75 1.6406-6.0156-0.0625-7.6406-4.8281-7.6406zm10.797 5.125c1.4688 0 2.3906 0.03125 1.6875 2.6094-0.59375 2.1719-1.4062 2.5625-3.1094 2.5625h-6.6406l1.4219-5.1719z"/>
  </symbol>
  <symbol id="d" overflow="visible">
   <path d="m7.8594-22.047-6.0625 22.047h16.797l1.4062-5.125h-11.203l4.6562-16.922z"/>
  </symbol>
  <symbol id="c" overflow="visible">
   <path d="m7.8281-22.047-6.0625 22.047h5.5938l4.3281-15.75 2.7969 15.75h8.1094l6.0625-22.047h-5.5938l-4.3438 15.781-2.8125-15.781z"/>
  </symbol>
  <clipPath id="ao">
   <rect width="322" height="31"/>
  </clipPath>
  <g clip-path="url(#ao)"></g>
  <clipPath>
   <rect width="161" height="154"/>
  </clipPath>
  <clipPath>
   <rect width="83" height="82"/>
  </clipPath>
  <clipPath>
   <rect width="102" height="83"/>
  </clipPath>
  <clipPath>
   <rect width="101" height="82"/>
  </clipPath>
  <clipPath>
   <rect width="82" height="83"/>
  </clipPath>
  <clipPath>
   <rect width="119" height="80"/>
  </clipPath>
  <clipPath>
   <rect width="117" height="81"/>
  </clipPath>
  <clipPath>
   <rect width="157" height="132"/>
  </clipPath>
  <clipPath>
   <rect width="567" height="349"/>
  </clipPath>
  <clipPath>
   <rect width="320" height="145"/>
  </clipPath>
  <clipPath>
   <rect width="320" height="145"/>
  </clipPath>
  <clipPath>
   <rect width="320" height="135"/>
  </clipPath>
  <clipPath>
   <rect width="151" height="151"/>
  </clipPath>
  <clipPath>
   <rect width="459" height="100"/>
  </clipPath>
  <clipPath>
   <rect width="108" height="79"/>
  </clipPath>
  <clipPath>
   <rect width="108" height="79"/>
  </clipPath>
  <clipPath>
   <rect width="107" height="79"/>
  </clipPath>
  <clipPath>
   <rect width="166" height="79"/>
  </clipPath>
 </defs>
 <g transform="translate(-46.624 -224.64)">
  <path d="m72.447 236.24h-25.784v-11.559h25.784z" fill="#cf1719" stroke="#cf1719" stroke-miterlimit="10" stroke-width=".077611"/>
  <g transform="translate(.97296 1.5756)" fill="#fff">
   <path d="m46.57 226.98h1.6716v3.8103h-1.6716v2.3316h5.6748v-2.3316h-1.6702v-3.8103h1.6702v-2.3316h-5.6748z"/>
   <path d="m64.917 226.98h5.6748v-2.3316h-5.6748z"/>
   <path d="m52.686 226.98h2.876l-0.38172 0.70004h-1.5117v3.3059l-0.77033 2.136h2.333l0.77032-2.136v-0.97289h0.70004l1.6592-3.0331v-2.3316h-5.6748z"/>
   <path d="m64.917 229.7h2.876l-2.4267 3.4203h2.7988l2.4267-3.4203v-2.333h-5.6748z"/>
   <path d="m63.583 226.83c-0.82545 0-1.4979-0.67248-1.4979-1.4993 0-0.24805 0.06201-0.48232 0.1695-0.68903h-3.4534v2.3316h3.3431v2.4874l-2.6196 3.6546h2.7988l2.1525-3.0234v-3.5608c-0.24942 0.18741-0.5581 0.29903-0.89297 0.29903"/>
   <path d="m63.583 225.77c-0.24392 0-0.44097-0.19706-0.44097-0.44097 0-0.24254 0.19706-0.44098 0.44097-0.44098s0.44097 0.19844 0.44097 0.44098c0 0.24391-0.19706 0.44097-0.44097 0.44097m0-1.6275c-0.65595 0-1.1879 0.53192-1.1879 1.1865 0 0.65594 0.53192 1.1879 1.1879 1.1879 0.65594 0 1.1879-0.53193 1.1879-1.1879 0-0.65457-0.53192-1.1865-1.1879-1.1865"/>
  </g>
  <path d="m72.447 240.2h-25.784v-3.9605h25.784z" fill="none" stroke="#cf1719" stroke-miterlimit="10" stroke-width=".077611"/>
  <g transform="translate(.97296 1.5756)" fill="#cf1719">
   <path d="m48.38 237.81c-0.07166 0.0455-0.1571 0.0799-0.25769 0.10335-0.1006 0.0234-0.21222 0.0345-0.33348 0.0345-0.32797 0-0.59945-0.10887-0.81442-0.32797-0.21498-0.21911-0.32246-0.4961-0.32246-0.82958 0-0.33349 0.10749-0.61047 0.32384-0.83234 0.21498-0.22186 0.48645-0.3321 0.81304-0.3321 0.12402 0 0.23702 0.0124 0.33486 0.0344 0.09922 0.0234 0.18466 0.0579 0.25631 0.10473v0.6587c-0.06753-0.0758-0.14745-0.13367-0.24116-0.17501-0.09233-0.0413-0.18879-0.062-0.28801-0.062-0.17914 0-0.32246 0.0565-0.4327 0.1695s-0.16536 0.26183-0.16536 0.4451c0 0.17226 0.0565 0.31144 0.16812 0.42168 0.11024 0.10887 0.25356 0.16399 0.42995 0.16399 0.09646 0 0.19293-0.0207 0.28663-0.062 0.09508-0.0427 0.17639-0.1006 0.24253-0.17363z"/>
   <path d="m50.589 237.9h-0.57878v-0.89159h-0.80064v0.89159h-0.58015v-2.2269h0.58015v0.86266h0.80064v-0.86266h0.57878z"/>
   <path d="m52.202 237.9h-1.2733v-2.2269h1.2733v0.49058h-0.69316v0.37208h0.66422v0.47266h-0.66422v0.40101h0.69316z"/>
   <path d="m54.104 237.81c-0.07028 0.0455-0.15572 0.0799-0.25631 0.10335-0.1006 0.0234-0.21222 0.0345-0.33486 0.0345-0.32659 0-0.59807-0.10887-0.81304-0.32797-0.21497-0.21911-0.32246-0.4961-0.32246-0.82958 0-0.33349 0.10749-0.61047 0.32384-0.83234 0.21498-0.22186 0.48645-0.3321 0.81166-0.3321 0.1254 0 0.23702 0.0124 0.33624 0.0344 0.09922 0.0234 0.18466 0.0579 0.25494 0.10473v0.6587c-0.06615-0.0758-0.14607-0.13367-0.23978-0.17501-0.09233-0.0413-0.18879-0.062-0.28939-0.062-0.17776 0-0.32108 0.0565-0.43132 0.1695s-0.16536 0.26183-0.16536 0.4451c0 0.17226 0.0565 0.31144 0.16674 0.42168 0.11162 0.10887 0.25494 0.16399 0.42995 0.16399 0.09784 0 0.1943-0.0207 0.28801-0.062 0.09508-0.0427 0.17501-0.1006 0.24116-0.17363z"/>
   <path d="m56.409 237.9h-0.73587l-0.73863-1.0404v1.0404h-0.57878v-2.2269h0.57878v1.0032l0.7469-1.0032h0.68626l-0.86265 1.0776z"/>
   <path d="m58.613 236.19c0-0.0537-0.01792-0.0965-0.05236-0.12954-0.03447-0.0331-0.07993-0.051-0.13643-0.051-0.06477 0-0.11438 0.0179-0.1502 0.0524-0.03583 0.0345-0.05375 0.0827-0.05375 0.14332 0 0.0248 0.0083 0.0565 0.02342 0.0951 0.01517 0.0372 0.03447 0.0703 0.0565 0.0978l0.08544 0.10611 0.07442-0.0592c0.04961-0.04 0.08682-0.0813 0.113-0.12541 0.02618-0.0441 0.03996-0.0868 0.03996-0.12953m-0.06201 1.1672-0.34313-0.37759c-0.07304 0.04-0.12816 0.0868-0.16536 0.13919-0.03997 0.051-0.05788 0.10611-0.05788 0.1626 0 0.0662 0.02205 0.12265 0.06753 0.1695 0.04548 0.0469 0.1006 0.0703 0.16812 0.0703 0.04961 0 0.10335-0.0138 0.1571-0.0413 0.05512-0.0262 0.113-0.0675 0.17363-0.12264m1.1672 0.54432h-0.66835l-0.1943-0.21635c-0.09646 0.0909-0.20257 0.15847-0.3197 0.19982-0.11575 0.0427-0.25356 0.0634-0.41341 0.0634-0.19568 0-0.35829-0.0593-0.48507-0.17777-0.12816-0.11713-0.19155-0.26734-0.19155-0.44786 0-0.13643 0.03721-0.25356 0.11162-0.3514 0.07441-0.0978 0.2067-0.19706 0.39274-0.29904-0.06201-0.0744-0.11024-0.15434-0.1447-0.24115-0.03447-0.0868-0.05237-0.17226-0.05237-0.25494 0-0.16399 0.05788-0.29766 0.17501-0.39826 0.11575-0.10059 0.27423-0.15158 0.47542-0.15158 0.20809 0 0.36794 0.051 0.48231 0.15021 0.113 0.0992 0.1695 0.24115 0.1695 0.42306 0 0.10197-0.03447 0.20119-0.10197 0.29627-0.06891 0.0951-0.17088 0.18742-0.3073 0.27423l0.25907 0.27699c0.05512-0.0455 0.10886-0.0951 0.15985-0.14745 0.05237-0.0524 0.10198-0.10749 0.15021-0.16537l0.3142 0.33073c-0.04961 0.062-0.09922 0.11989-0.14883 0.17364-0.05099 0.0537-0.1006 0.10197-0.15296 0.14607z"/>
   <path d="m62.328 237.2c0 0.22738-0.07855 0.41066-0.23702 0.5457-0.1571 0.13643-0.36794 0.20396-0.62976 0.20396-0.15434 0-0.29352-0.0248-0.41754-0.0772-0.12402-0.051-0.24667-0.13367-0.36794-0.24805l0.27147-0.41893c0.08131 0.0923 0.16536 0.16123 0.2508 0.20533s0.17776 0.0661 0.27561 0.0661c0.0813 0 0.14745-0.0207 0.19844-0.0634s0.07579-0.0965 0.07579-0.16399c0-0.073-0.02342-0.13091-0.07028-0.17225-0.04685-0.04-0.14745-0.0799-0.30179-0.11989-0.2067-0.0537-0.35829-0.13229-0.45475-0.23565-0.09646-0.10335-0.14469-0.2384-0.14469-0.40514 0-0.20671 0.07028-0.37345 0.21222-0.49885 0.14194-0.12678 0.32797-0.19017 0.55948-0.19017 0.12402 0 0.23978 0.0165 0.34864 0.0496 0.10886 0.0317 0.21084 0.0813 0.3073 0.14883l-0.19017 0.44648c-0.06615-0.0551-0.13505-0.0978-0.20809-0.12815-0.07166-0.0289-0.14469-0.0427-0.21635-0.0427-0.07717 0-0.1378 0.0152-0.18328 0.0455-0.04685 0.0303-0.0689 0.0703-0.0689 0.12127 0 0.0992 0.10886 0.17639 0.3266 0.23289 0.01517 4e-3 0.02618 7e-3 0.03447 0.01 0.22324 0.0592 0.38447 0.14331 0.48231 0.25218s0.14745 0.25356 0.14745 0.43684"/>
   <path d="m64.544 237.9h-0.57877v-0.89159h-0.80064v0.89159h-0.58015v-2.2269h0.58015v0.86266h0.80064v-0.86266h0.57877z"/>
   <path d="m66.131 237.08-0.29628-0.94672-0.29904 0.94672zm0.86816 0.82406h-0.62012l-0.12127-0.3955h-0.85163l-0.12403 0.3955h-0.62012l0.79237-2.2269h0.75241z"/>
   <path d="m69.17 237.9h-0.73587l-0.73863-1.0404v1.0404h-0.57878v-2.2269h0.57878v1.0032l0.74689-1.0032h0.68626l-0.86265 1.0776z"/>
   <path d="m70.555 237.9h-1.2733v-2.2269h1.2733v0.49058h-0.69453v0.37208h0.66559v0.47266h-0.66559v0.40101h0.69453z"/>
  </g>
  <g transform="matrix(.35278 0 0 .35278 1.1253 -2.8273)" fill="#0f356b">
   <use x="136.1636" y="724.87048" width="100%" height="100%" xlink:href="#an"/>
  </g>
  <g transform="translate(.97296 1.5756)" fill="#211714">
   <g transform="matrix(.35278 0 0 .35278 .15234 -4.4029)">
    <use x="263.4971" y="653.58728" width="100%" height="100%" xlink:href="#am"/>
   </g>
   <g transform="matrix(.35278 0 0 .35278 .15234 -4.4029)">
    <use x="272.79523" y="653.58728" width="100%" height="100%" xlink:href="#ah"/>
   </g>
   <g transform="matrix(.35278 0 0 .35278 .15234 -4.4029)">
    <use x="282.65222" y="653.58728" width="100%" height="100%" xlink:href="#ag"/>
    <use x="292.92908" y="653.58728" width="100%" height="100%" xlink:href="#b"/>
    <use x="303.20596" y="653.58728" width="100%" height="100%" xlink:href="#af"/>
    <use x="313.48285" y="653.58728" width="100%" height="100%" xlink:href="#ae"/>
    <use x="323.7597" y="653.58728" width="100%" height="100%" xlink:href="#ad"/>
    <use x="334.03659" y="653.58728" width="100%" height="100%" xlink:href="#ac"/>
    <use x="344.31348" y="653.58728" width="100%" height="100%" xlink:href="#b"/>
   </g>
   <g transform="matrix(.35278 0 0 .35278 .15234 -4.4029)">
    <use x="353.90521" y="653.58728" width="100%" height="100%" xlink:href="#ab"/>
   </g>
   <g transform="matrix(.35278 0 0 .35278 .15234 -4.4029)">
    <use x="363.59387" y="653.58728" width="100%" height="100%" xlink:href="#al"/>
    <use x="373.87073" y="653.58728" width="100%" height="100%" xlink:href="#ak"/>
    <use x="384.14761" y="653.58728" width="100%" height="100%" xlink:href="#aj"/>
    <use x="394.4245" y="653.58728" width="100%" height="100%" xlink:href="#ai"/>
   </g>
   <g transform="matrix(.35278 0 0 .35278 .15234 -4.4029)">
    <use x="268.48141" y="688.06189" width="100%" height="100%" xlink:href="#aa"/>
    <use x="277.29007" y="688.06189" width="100%" height="100%" xlink:href="#s"/>
    <use x="286.09872" y="688.06189" width="100%" height="100%" xlink:href="#r"/>
    <use x="294.90738" y="688.06189" width="100%" height="100%" xlink:href="#q"/>
    <use x="303.71603" y="688.06189" width="100%" height="100%" xlink:href="#p"/>
    <use x="312.52469" y="688.06189" width="100%" height="100%" xlink:href="#o"/>
    <use x="321.33337" y="688.06189" width="100%" height="100%" xlink:href="#n"/>
    <use x="330.14203" y="688.06189" width="100%" height="100%" xlink:href="#m"/>
    <use x="338.95068" y="688.06189" width="100%" height="100%" xlink:href="#l"/>
    <use x="347.75934" y="688.06189" width="100%" height="100%" xlink:href="#z"/>
    <use x="356.56799" y="688.06189" width="100%" height="100%" xlink:href="#y"/>
    <use x="365.37665" y="688.06189" width="100%" height="100%" xlink:href="#x"/>
   </g>
   <g transform="matrix(.35278 0 0 .35278 .15234 -4.4029)">
    <use x="376.28262" y="688.06189" width="100%" height="100%" xlink:href="#w"/>
    <use x="383.06949" y="688.06189" width="100%" height="100%" xlink:href="#v"/>
    <use x="389.85635" y="688.06189" width="100%" height="100%" xlink:href="#u"/>
    <use x="392.9184" y="688.06189" width="100%" height="100%" xlink:href="#t"/>
   </g>
   <g transform="matrix(.35278 0 0 .35278 .15234 -4.4029)">
    <use x="209.6933" y="675.94208" width="100%" height="100%" xlink:href="#k"/>
    <use x="231.71506" y="675.94208" width="100%" height="100%" xlink:href="#j"/>
    <use x="253.73682" y="675.94208" width="100%" height="100%" xlink:href="#i"/>
    <use x="275.75858" y="675.94208" width="100%" height="100%" xlink:href="#h"/>
   </g>
   <g transform="matrix(.35278 0 0 .35278 .15234 -4.4029)">
    <use x="302.29099" y="678.59839" width="100%" height="100%" xlink:href="#a"/>
    <use x="328.01797" y="678.59839" width="100%" height="100%" xlink:href="#g"/>
    <use x="339.76291" y="678.59839" width="100%" height="100%" xlink:href="#f"/>
    <use x="363.95184" y="678.59839" width="100%" height="100%" xlink:href="#e"/>
    <use x="388.14078" y="678.59839" width="100%" height="100%" xlink:href="#d"/>
    <use x="408.6944" y="678.59839" width="100%" height="100%" xlink:href="#a"/>
    <use x="434.42139" y="678.59839" width="100%" height="100%" xlink:href="#c"/>
   </g>
  </g>
 </g>
</svg>
