<svg width="129.37mm" height="10.442mm" version="1.1" viewBox="0 0 129.37 15.442" xmlns="http://www.w3.org/2000/svg" xmlns:xlink="http://www.w3.org/1999/xlink"><defs><symbol id="aa" overflow="visible"/><symbol id="f" overflow="visible"><path d="m25.906-13.328c0-11.812-2.2656-13.594-12.281-13.594-9.9062 0-12 2.125-12 13.594 0 11.812 2.2969 13.594 12.281 13.594 9.9375 0 12-2.125 12-13.594zm-12.141-8.5312c3.3125 0 5.3125 0.17188 5.9844 1.9688 0.48438 1.2812 0.57812 5.5156 0.57812 7.1094 0 7.375-0.67188 7.9844-6.1562 7.9844-6.3906 0-6.9688-0.20312-6.9688-8.4688 0-8.2812 0.57812-8.5938 6.5625-8.5938z"/></symbol><symbol id="e" overflow="visible"><path d="m1.8281-26.656v5.0781h17.891l-13.656 21.578h6.6562l13.062-21.516v-5.1406z"/></symbol><symbol id="d" overflow="visible"><path d="m2.875-26.656-0.375 15.562h5.1094c0.3125-0.95312 0.67188-1.9375 6.5312-1.9375 5.6562 0 6.0938 1.2969 6.0938 4.2344 0 3.3906-1.1875 4-6.8438 4-5.7188 0-6.125-1.2656-6.125-3.8594h-5.5469c0.10938 7.5469 3.1875 8.9219 12.312 8.9219 8.9062 0 11.75-2.1562 11.75-9.0625 0-8.3125-4.4062-9.125-10.078-9.125-5.3906 0-6.7344 0.90625-7.8906 1.7812l0.20312-5.4375h16.719v-5.0781z"/></symbol><symbol id="c" overflow="visible"><path d="m0.875-12.516v5.1094h10.797v-5.1094z"/></symbol><symbol id="z" overflow="visible"><path d="m18.844-10.078c1.9219-0.23438 4.0938-1.25 5.2344-2.3438 1.7031-1.5781 1.8281-4.8594 1.8281-6.0781 0-8.0938-5.8125-8.4219-11.969-8.4219-10.891 0-11.609 3.5469-11.672 9.4688h5.4844c0.0625-3.75 0.60938-4.4062 6.7344-4.4062 5.1406 0 5.9062 1.1875 5.9062 3.6875 0 2.2344-0.76562 2.9844-3.2812 3.25l-8.6562 0.98438c-6.5938 0.75-6.6562 6.3906-6.6562 9.2031v4.7344h23.953v-5.0781h-18.406v-0.84375c0-2.5312 1.3125-2.9062 3.1719-3.1406z"/></symbol><symbol id="y" overflow="visible"><path d="m14.516-26.656-13.531 15.938v5.5156h15.766v5.2031h5.5156v-5.2031h4.3281v-5.0781h-4.3281v-16.375zm2.2344 16.375h-10.078l10.078-11.781z"/></symbol><symbol id="x" overflow="visible"><path d="m25.266-18.906c0.03125-7-4.3906-8.0156-11.328-8.0156-11.094 0-11.812 3.7812-11.812 15.688 0 11.031 4.6719 11.5 12.625 11.5 6.625 0 10.688-1.1094 10.688-9.0312 0-5.1719-1.7969-8.3438-9.6719-8.3438-5.8594 0-7.0312 1.1406-8.125 2.1875 0-6.4531 1.3281-7.0938 7.0781-7.0938 4.7969 0 5.0781 1.3438 5.0312 3.1094zm-10.75 6.6562c4.5625 0 5.6406 1.125 5.6406 3.5938 0 3.0781-0.5625 4.125-5.6719 4.125-5.2188 0-6.7344-0.57812-6.7344-3.625 0-3.9531 2.2969-4.0938 6.7656-4.0938z"/></symbol><symbol id="w" overflow="visible"><path d="m1.625-9.4062c0 7.4844 1.75 9.6719 12.656 9.6719 5.7812 0 11.672-0.5625 11.672-7.9844 0-4.7344-2.7812-5.8125-3.7969-6.2188 3.3125-1.1094 3.3125-4.6406 3.3125-5.4531 0-7.5-6.7344-7.5312-11.797-7.5312-8.7031 0-11.375 1.7812-11.5 9h5.5469c0-2.6406 0.15625-3.8594 5.6719-3.8594 4.125 0 6.5625 0.0625 6.5625 3.0781 0 2.7969-2.0938 2.7969-3.6094 2.7969h-5.5469v4.4688h5.5469c1.6875 0 4.0156 0.07813 4.0156 3.25 0 2.9375-2.5 3.3438-5.7812 3.3438-7.0625 0-7.4375-0.67188-7.375-4.5625z"/></symbol><symbol id="v" overflow="visible"><path d="m5.4688 1.7344c-1.4219-1.7812-2.2188-3.7031-2.2188-5.9844s0.79688-4.1875 2.2188-6h-1.4375c-1.3594 1.7344-2.2969 3.7969-2.2969 6s0.9375 4.2656 2.2969 5.9844z"/></symbol><symbol id="q" overflow="visible"><path d="m9.5312-0.98438c0 0.3125-0.015625 0.45312-0.40625 0.45312h-2.125l0.25 1.7188h2.3125c1.5156 0 1.6562-0.40625 1.6562-1.5781v-10.188h-9.125v5.5781c0 2.6719-1.0156 4.1875-1.6719 5.0312l1.4688 1.1875c0.90625-1.25 1.5156-2.7188 1.7812-4.2031h5.8594zm-5.7656-8.0625h5.7656v1.4844h-5.7656zm0 2.9688h5.7656v1.5938h-5.7656z"/></symbol><symbol id="p" overflow="visible"><path d="m4.7031-2.4062c0.23438-0.17188 0.28125-0.1875 0.40625-0.3125v3.8906h1.4688v-0.48438h6.0156v-1.1719h-2.875v-0.67188h2.1562v-0.89062h-2.1562v-0.65625h2.1562v-0.90625h-2.1562v-0.64062h2.625v-1.125h-2.3594c0.0625-0.09375 0.14062-0.21875 0.34375-0.625l-1.4375-0.20312c-0.1875 0.4375-0.23438 0.5625-0.40625 0.82812h-1.3281c0.14062-0.28125 0.17188-0.39062 0.23438-0.60938l-1.3906-0.32812c-0.51562 1.2188-1.5469 2.1875-1.7812 2.3906v-6.6406h-3.5469v10.922h1.3438v-0.9375h2.2031v-2.6406zm3.6875-0.29688v0.65625h-1.8125v-0.65625zm0-1.5469v0.64062h-1.8125v-0.64062zm0 3.0938v0.67188h-1.8125v-0.67188zm-5.4062-7.8906v2.6875h-1v-2.6875zm0 4.0938v2.875h-1v-2.875zm1.625-4.6562h2.1406v0.625h-1.9531v0.95312h1.9531v0.625h-2.1406v1.0625h3.5469v-4.3438h-3.5469zm4 0h2.2031v0.625h-2.0312v0.95312h2.0312v0.625h-2.2031v1.0625h3.5938v-4.3438h-3.5938z"/></symbol><symbol id="o" overflow="visible"><path d="m11.688-10.781-1.75-0.01563-0.046875 2.7188c-0.03125 2.2813-0.15625 6.3906-5.4062 7.7031l0.92188 1.5781c0.75-0.23438 2.6094-0.8125 4.2344-2.6562 1.3125 1.5781 1.6562 2.2188 1.875 2.625l1.2969-1.4688c-0.34375-0.46875-0.75-1.0312-2.25-2.5312 1.0156-2.0156 1.0625-4.0781 1.0781-5.0469zm-11.062 10.938c1.3438-0.4375 4.75-1.7969 6.0781-2.4688l-0.29688-1.4531c-0.78125 0.35938-1.0312 0.45312-3.2188 1.2812l-0.046875-8.375-1.6875 0.03125 0.0625 8.9531c-0.67188 0.21875-0.85938 0.28125-1.2031 0.35938zm3.6719-9.5938c1.4688 1.6094 2.1562 2.7188 2.5938 3.4688l1.4531-1.1094c-0.875-1.3906-1.9219-2.5469-2.7812-3.3594z"/></symbol><symbol id="n" overflow="visible"><path d="m1.2031-4.2969c0.28125-0.3125 0.46875-0.5 0.92188-1.125 0.8125 0.65625 1.4219 1.1875 2.0781 1.9219-1.2031 1.7656-2.7344 2.75-3.8438 3.3906l1.1406 1.3906c3.875-2.4531 4.9844-5.1406 5.625-8 0.3125 0.51562 0.78125 1.2969 1.9844 2.4688v5.4062h1.625v-4.125c0.6875 0.45312 1.1719 0.70312 1.5938 0.92188l0.51562-1.8438c-0.53125-0.23438-1.3125-0.57812-2.1094-1.1406v-6h-1.625v4.5469c-0.42188-0.5-0.65625-0.85938-0.875-1.2344l-1.0781 0.90625c0.25-1.2812 0.32812-2.1719 0.375-2.75h-3.6094c0.15625-0.60938 0.21875-1 0.29688-1.4219l-1.5781-0.07813c-0.35938 2.25-1.0312 3.7812-2.4531 5.3594zm4.6094-3.7188c-0.125 0.79688-0.28125 1.8594-0.82812 3.0781-0.125-0.125-1.1094-1.0781-2.0781-1.7969 0.3125-0.65625 0.45312-0.96875 0.54688-1.2812z"/></symbol><symbol id="m" overflow="visible"/><symbol id="l" overflow="visible"><path d="m0.82812-2.8906c0 1.6875 0.64062 3 3.9219 3 3.4375 0 4.2969-1.4844 4.2969-4.8906 0-3.9219-0.21875-5.5625-4.3125-5.5625-3.0469 0-3.9219 1.0938-3.9219 3.4219 0 1.4688 0.39062 3.1719 3.5 3.1719 2.1406 0 2.6719-0.625 2.9219-0.9375 0.0625 2.6719-0.57812 3.1719-2.5469 3.1719-2.0312 0-2.0781-0.78125-2.0625-1.375zm4.0156-2.4062c-1.9688 0-2.2812-0.6875-2.2812-1.7031 0-1.2188 0.29688-1.7656 2.2656-1.7656 1.7031 0 2.375 0.42188 2.375 1.6875 0 0.84375-0.14062 1.7812-2.3594 1.7812z"/></symbol><symbol id="b" overflow="visible"><path d="m0.73438-7.6562v1.9688h1.9062v-1.9688zm0 5.6875v1.9688h1.9062v-1.9688z"/></symbol><symbol id="k" overflow="visible"><path d="m0.67188-3.5469c0 2.4219 0.53125 3.6562 4.4531 3.6562 1.9844 0 4.0625-0.35938 4.0625-3.0312 0-1.8594-1.125-2.2812-1.5312-2.4219 0.4375-0.14062 1.375-0.46875 1.375-2.1875 0-2.4219-1.9688-2.8125-3.8281-2.8125-2.9062 0-4.2344 0.48438-4.3125 3.3438h1.8125c0.0625-1.1406 0.09375-1.7031 2.5156-1.7031 1.6719 0 2.0156 0.53125 2.0156 1.4062 0 1.2969-0.9375 1.2969-1.6406 1.2969h-1.5938v1.4688h1.6094c1.2812 0 1.7812 0.39062 1.7812 1.4844 0 0.79688-0.26562 1.5156-2.1875 1.5156-2.6406 0-2.7188-0.60938-2.7031-2.0156z"/></symbol><symbol id="a" overflow="visible"><path d="m0.65625-5.125c0 4 0.78125 5.2344 4.2812 5.2344s4.2812-1.25 4.2812-5.2344c0-4-0.8125-5.2188-4.2812-5.2188-3.5 0-4.2812 1.25-4.2812 5.2188zm4.2812-3.5781c0.53125 0 1.6562 0.015625 2.0625 0.60938 0.375 0.54688 0.39062 2.2188 0.39062 2.9688s-0.015625 2.4375-0.39062 2.9688c-0.40625 0.59375-1.5156 0.625-1.9688 0.625-0.75 0-1.75-0.046875-2.1562-0.625-0.375-0.53125-0.40625-2.2188-0.40625-2.9688s0.03125-2.4219 0.40625-2.9688c0.40625-0.59375 1.5-0.60938 2.0625-0.60938z"/></symbol><symbol id="u" overflow="visible"><path d="m11.469-6c-0.28125 0.3125-1.0625 1.2344-2.4531 1.2344-0.82812 0-1.4219-0.32812-2.3125-0.84375-0.70312-0.39062-1.5781-0.85938-2.7188-0.85938-1.875 0-2.9531 1.125-3.4375 1.6719l1 0.89062c0.89062-1.1719 2.0469-1.1719 2.3594-1.1719 0.95312 0 1.2031 0.125 2.9375 1.0938 0.29688 0.15625 1.0625 0.57812 2.1406 0.57812 1.0938 0 2.5-0.48438 3.4688-1.7031z"/></symbol><symbol id="t" overflow="visible"><path d="m2.3594-10.25v1.6562h2.0312v8.5938h1.8281v-10.25z"/></symbol><symbol id="s" overflow="visible"><path d="m2.2031-5.3281c-1.5469 0.4375-1.5469 2.1875-1.5469 2.5625 0 2.6719 2.6094 2.875 4.2812 2.875 2.2188 0 4.2656-0.40625 4.2656-2.8906 0-0.28125 0-2.1094-1.5312-2.5312 1.1875-0.46875 1.3438-1.6719 1.3438-2.2188 0-2.4375-2-2.8125-4.0625-2.8125-2.1562 0-4.0938 0.40625-4.0938 2.8281 0 0.25 0 1.6875 1.3438 2.1875zm2.7344-0.6875c-1.5625 0-2.3125-0.23438-2.3125-1.375 0-0.84375 0.26562-1.375 2.3125-1.375 1.8906 0 2.2969 0.4375 2.2969 1.3125 0 1.0625-0.48438 1.4375-2.2969 1.4375zm0 4.5c-2.0312 0-2.5-0.4375-2.5-1.4688 0-1.2812 0.71875-1.5938 2.5-1.5938 1.6406 0 2.5 0.25 2.5 1.5781 0 1.0156-0.40625 1.4844-2.5 1.4844z"/></symbol><symbol id="r" overflow="visible"><path d="m0.3125-10.25c1.4219 1.7969 2.2031 3.7188 2.2031 6s-0.78125 4.2031-2.2031 5.9844h1.4219c1.3906-1.7188 2.3125-3.7812 2.3125-5.9844s-0.92188-4.2656-2.3125-6z"/></symbol><symbol id="j" overflow="visible"><path d="m16.234-14.031v-3.3125h-15.766v3.3125h6.0625v14.031h3.6094v-14.031z"/></symbol><symbol id="i" overflow="visible"><path d="m1.5625-17.344v17.344h14.234v-3.2969h-10.625v-3.9219h9.9688v-3.1719h-9.9688v-3.6406h10.406v-3.3125z"/></symbol><symbol id="h" overflow="visible"><path d="m1.4375-17.344v17.344h13.188v-3.2969h-9.5625v-14.047z"/></symbol><symbol id="g" overflow="visible"><path d="m9.1562-14.828v3.7188h3.6875v-3.7188zm0 9.2188v3.7188h3.6875v-3.7188z"/></symbol><clipPath id="ab"><rect width="322" height="31"/></clipPath><g clip-path="url(#ab)"></g><clipPath><rect width="161" height="154"/></clipPath><clipPath><rect width="83" height="82"/></clipPath><clipPath><rect width="102" height="83"/></clipPath><clipPath><rect width="101" height="82"/></clipPath><clipPath><rect width="82" height="83"/></clipPath><clipPath><rect width="119" height="80"/></clipPath><clipPath><rect width="117" height="81"/></clipPath><clipPath><rect width="157" height="132"/></clipPath><clipPath><rect width="567" height="349"/></clipPath><clipPath><rect width="320" height="145"/></clipPath><clipPath><rect width="320" height="145"/></clipPath><clipPath><rect width="320" height="135"/></clipPath><clipPath><rect width="151" height="151"/></clipPath><clipPath><rect width="459" height="100"/></clipPath><clipPath><rect width="108" height="79"/></clipPath><clipPath><rect width="108" height="79"/></clipPath><clipPath><rect width="107" height="79"/></clipPath><clipPath><rect width="166" height="79"/></clipPath></defs><g transform="translate(-30.384 -245.33)"><g transform="matrix(.35278 0 0 .35278 3.6232 -2.5021)" fill="#0f356b"><use x="136.1636" y="724.87048" width="100%" height="100%" xlink:href="#aa"/></g><g transform="matrix(.35278 0 0 .35278 3.6232 -2.5021)" fill="#0f356b"><use x="143.4238" y="729.44177" width="100%" height="100%" xlink:href="#f"/><use x="170.99721" y="729.44177" width="100%" height="100%" xlink:href="#e"/><use x="198.57062" y="729.44177" width="100%" height="100%" xlink:href="#d"/><use x="226.14401" y="729.44177" width="100%" height="100%" xlink:href="#c"/><use x="238.662" y="729.44177" width="100%" height="100%" xlink:href="#z"/><use x="266.23541" y="729.44177" width="100%" height="100%" xlink:href="#f"/><use x="293.80881" y="729.44177" width="100%" height="100%" xlink:href="#d"/><use x="321.38223" y="729.44177" width="100%" height="100%" xlink:href="#c"/><use x="333.90021" y="729.44177" width="100%" height="100%" xlink:href="#y"/><use x="361.47363" y="729.44177" width="100%" height="100%" xlink:href="#e"/><use x="389.04703" y="729.44177" width="100%" height="100%" xlink:href="#x"/><use x="416.62042" y="729.44177" width="100%" height="100%" xlink:href="#w"/></g><g transform="translate(3.4709 1.9008)" fill="#211714"><g transform="matrix(.35278 0 0 .35278 .15234 -4.4029)"><use x="192.5542" y="744.5589" width="100%" height="100%" xlink:href="#v"/></g><g transform="matrix(.35278 0 0 .35278 .15234 -4.4029)"><use x="198.9762" y="744.5589" width="100%" height="100%" xlink:href="#q"/></g><g transform="matrix(.35278 0 0 .35278 .15234 -4.4029)"><use x="211.7422" y="744.5589" width="100%" height="100%" xlink:href="#p"/><use x="224.7422" y="744.5589" width="100%" height="100%" xlink:href="#o"/><use x="237.7422" y="744.5589" width="100%" height="100%" xlink:href="#n"/><use x="250.7422" y="744.5589" width="100%" height="100%" xlink:href="#m"/><use x="255.0712" y="744.5589" width="100%" height="100%" xlink:href="#l"/><use x="264.9382" y="744.5589" width="100%" height="100%" xlink:href="#b"/><use x="268.30521" y="744.5589" width="100%" height="100%" xlink:href="#k"/></g><g transform="matrix(.35278 0 0 .35278 .15234 -4.4029)"><use x="278.17221" y="744.5589" width="100%" height="100%" xlink:href="#a"/></g><g transform="matrix(.35278 0 0 .35278 .15234 -4.4029)"><use x="289.09219" y="744.5589" width="100%" height="100%" xlink:href="#u"/></g><g transform="matrix(.35278 0 0 .35278 .15234 -4.4029)"><use x="300.02521" y="744.5589" width="100%" height="100%" xlink:href="#t"/><use x="309.89221" y="744.5589" width="100%" height="100%" xlink:href="#s"/><use x="319.75919" y="744.5589" width="100%" height="100%" xlink:href="#b"/><use x="323.12619" y="744.5589" width="100%" height="100%" xlink:href="#a"/><use x="332.99319" y="744.5589" width="100%" height="100%" xlink:href="#a"/><use x="342.8602" y="744.5589" width="100%" height="100%" xlink:href="#r"/></g></g><g transform="translate(3.4709 1.9008)" fill="#0f356b"><g transform="matrix(.35278 0 0 .35278 .15234 -4.4029)"><use x="75.388199" y="724.39288" width="100%" height="100%" xlink:href="#j"/><use x="93.186203" y="724.39288" width="100%" height="100%" xlink:href="#i"/></g><g transform="matrix(.35278 0 0 .35278 .15234 -4.4029)"><use x="110.9842" y="724.39288" width="100%" height="100%" xlink:href="#h"/></g><g transform="matrix(.35278 0 0 .35278 .15234 -4.4029)"><use x="123.6342" y="724.39288" width="100%" height="100%" xlink:href="#g"/></g></g></g></svg>
